<?xml version="1.0" encoding="UTF-8"?>
<svg version="1.1" xmlns="http://www.w3.org/2000/svg" width="64" height="64">
<path d="M0 0 C3.23810903 1.24320257 3.85821628 2.06269662 6 5 C6.70138271 10.435716 5.92755768 14.82602939 4 20 C2.4375 21.75 2.4375 21.75 1 23 C0.505 24.485 0.505 24.485 0 26 C0.66386719 26.15855469 1.32773437 26.31710938 2.01171875 26.48046875 C8.52684208 28.20198309 12.38363088 29.93305889 16.1484375 35.78515625 C18.81850108 40.54771646 20.31025275 45.49818461 20 51 C19.34064058 52.33696199 18.67394258 53.67032951 18 55 C17.79700659 57.10031605 17.79700659 57.10031605 17.9375 59.1875 C17.958125 60.445625 17.97875 61.70375 18 63 C17 64 17 64 13.58178711 64.11352539 C12.06363012 64.11336628 10.54546771 64.10767226 9.02734375 64.09765625 C8.22970108 64.0962413 7.43205841 64.09482635 6.61024475 64.09336853 C4.05262565 64.08775316 1.49509282 64.07519812 -1.0625 64.0625 C-2.79231645 64.05748698 -4.52213426 64.05292373 -6.25195312 64.04882812 C-10.50136239 64.03862791 -14.75058416 64.01905568 -19 64 C-19 56.74 -19 49.48 -19 42 C-22.3 42.66 -25.6 43.32 -29 44 C-32.75340743 42.64490162 -34.87240444 40.34995398 -37 37 C-38.12792405 32.30400248 -37.76998381 28.44371965 -35.5 24.1875 C-33.40090609 19.72692544 -33.9659162 15.78159038 -34.28515625 10.92578125 C-34 8 -34 8 -32.16796875 6.0859375 C-29.38042872 4.68965619 -27.92352665 5.10670019 -25 6 C-24.67 7.65 -24.34 9.3 -24 11 C-23.01 11.33 -22.02 11.66 -21 12 C-21.495 12.9075 -21.99 13.815 -22.5 14.75 C-24.78798541 19.95973205 -24.24714013 25.425617 -24 31 C-22.948125 30.38125 -21.89625 29.7625 -20.8125 29.125 C-17.94984323 27.48420892 -15.10792754 26.13015547 -12 25 C-11.89459074 22.78918149 -11.89459074 22.78918149 -13 20 C-13.99 19.67 -14.98 19.34 -16 19 C-16 16.69 -16 14.38 -16 12 C-16.66 12 -17.32 12 -18 12 C-17.835 11.401875 -17.67 10.80375 -17.5 10.1875 C-16.8885876 7.88655664 -16.8885876 7.88655664 -17 5 C-14.57989653 -2.26031042 -6.33653028 -0.7377088 0 0 Z M8 47 C8 50.63 8 54.26 8 58 C8.33 58 8.66 58 9 58 C9 54.37 9 50.74 9 47 C8.67 47 8.34 47 8 47 Z " fill="#632717" transform="translate(40,0)"/>
<path d="M0 0 C3.23810903 1.24320257 3.85821628 2.06269662 6 5 C6.70138271 10.435716 5.92755768 14.82602939 4 20 C3 21 2 22 1 23 C0.64080679 24.99551782 0.30503431 26.99548879 0 29 C-2.70879335 30.35439668 -5.00933268 30.06501451 -8 30 C-11 24 -11 24 -12 21.6875 C-12.95854206 19.64996902 -12.95854206 19.64996902 -16 19 C-16 16.69 -16 14.38 -16 12 C-16.66 12 -17.32 12 -18 12 C-17.835 11.401875 -17.67 10.80375 -17.5 10.1875 C-16.8885876 7.88655664 -16.8885876 7.88655664 -17 5 C-14.57989653 -2.26031042 -6.33653028 -0.7377088 0 0 Z " fill="#E6AD8A" transform="translate(40,0)"/>
<path d="M0 0 C0.33 1.65 0.66 3.3 1 5 C1.99 5.33 2.98 5.66 4 6 C3.505 6.9075 3.01 7.815 2.5 8.75 C0.21201459 13.95973205 0.75285987 19.425617 1 25 C1.99 24.34 2.98 23.68 4 23 C4.99 23 5.98 23 7 23 C8.1577506 26.47325181 8.06866652 29.36067448 8 33 C6.35 33.66 4.7 34.32 3 35 C3 35.66 3 36.32 3 37 C-0.71904151 38.16220047 -2.71077547 38.65470185 -6.24609375 36.859375 C-9.42625103 34.43315875 -11.63635982 32.48253305 -12.609375 28.515625 C-12.73086776 24.50636402 -12.39935702 21.7487944 -10.5 18.1875 C-8.40090609 13.72692544 -8.9659162 9.78159038 -9.28515625 4.92578125 C-9 2 -9 2 -7.16796875 0.0859375 C-4.38042872 -1.31034381 -2.92352665 -0.89329981 0 0 Z " fill="#763822" transform="translate(15,6)"/>
<path d="M0 0 C0.33 1.32 0.66 2.64 1 4 C3.64 4 6.28 4 9 4 C9 3.01 9 2.02 9 1 C10.32 1.66 11.64 2.32 13 3 C12.88562349 5.72998676 12.75888594 8.4584582 12.625 11.1875 C12.57859375 12.34088867 12.57859375 12.34088867 12.53125 13.51757812 C12.31383889 17.73897711 11.90256928 21.14072328 10 25 C8.35 25 6.7 25 5 25 C5 23.35 5 21.7 5 20 C4.01 20 3.02 20 2 20 C2 21.65 2 23.3 2 25 C0.35 25 -1.3 25 -3 25 C-5.35582065 20.37183267 -5.23521469 16.24465865 -5.125 11.1875 C-5.11597656 10.39923828 -5.10695313 9.61097656 -5.09765625 8.79882812 C-5.07422504 6.86575334 -5.03835838 4.9328362 -5 3 C-5.99 2.67 -6.98 2.34 -8 2 C-5.09399739 0.74335022 -3.20395416 0 0 0 Z " fill="#595857" transform="translate(31,25)"/>
<path d="M0 0 C0.99 0 1.98 0 3 0 C3.06058594 1.16917969 3.12117188 2.33835937 3.18359375 3.54296875 C3.26804034 5.09115614 3.35268625 6.63933268 3.4375 8.1875 C3.47681641 8.95642578 3.51613281 9.72535156 3.55664062 10.51757812 C3.77507034 14.43251075 4.08692108 18.17120688 5 22 C6.65 22 8.3 22 10 22 C10 20.35 10 18.7 10 17 C10.99 17 11.98 17 13 17 C13 18.65 13 20.3 13 22 C14.65 22 16.3 22 18 22 C19.09315246 17.4161086 19.32282625 12.87488993 19.5625 8.1875 C19.60568359 7.39923828 19.64886719 6.61097656 19.69335938 5.79882812 C19.79878321 3.86605785 19.89983094 1.93304974 20 0 C22.31 0.33 24.62 0.66 27 1 C26.67 1.99 26.34 2.98 26 4 C25.34 4 24.68 4 24 4 C23.67 5.32 23.34 6.64 23 8 C22.67 7.34 22.34 6.68 22 6 C22 7.28777344 22 8.57554688 22 9.90234375 C22 14.93489583 22 19.96744792 22 25 C22.33 25.99 22.66 26.98 23 28 C19.77208445 30.1519437 18.71599191 30.20086443 15 30 C15 30.99 15 31.98 15 33 C10.38 33 5.76 33 1 33 C1 31.68 1 30.36 1 29 C0.34 29 -0.32 29 -1 29 C-1.05418326 26.91695462 -1.09287551 24.83350232 -1.125 22.75 C-1.14820312 21.58984375 -1.17140625 20.4296875 -1.1953125 19.234375 C-1 16 -1 16 1 12 C1 16.29 1 20.58 1 25 C2.32 25.33 3.64 25.66 5 26 C3.68 25.34 2.36 24.68 1 24 C1.01160156 22.77023438 1.02320313 21.54046875 1.03515625 20.2734375 C1.04454022 18.64062653 1.05363977 17.0078139 1.0625 15.375 C1.07087891 14.56675781 1.07925781 13.75851563 1.08789062 12.92578125 C1.1058955 8.49658082 0.89622662 4.36116576 0 0 Z " fill="#8B4D32" transform="translate(23,28)"/>
<path d="M0 0 C3.23810903 1.24320257 3.85821628 2.06269662 6 5 C6.61701816 7.96399377 6.39945348 9.90423556 6 13 C5.01 14.485 5.01 14.485 4 16 C3.01 16 2.02 16 1 16 C0.34 13.36 -0.32 10.72 -1 8 C-1.78375 8.495 -2.5675 8.99 -3.375 9.5 C-6 11 -6 11 -8 11 C-8 11.66 -8 12.32 -8 13 C-9.65 13 -11.3 13 -13 13 C-13.33 14.32 -13.66 15.64 -14 17 C-14.66 15.35 -15.32 13.7 -16 12 C-16.66 12 -17.32 12 -18 12 C-17.835 11.401875 -17.67 10.80375 -17.5 10.1875 C-16.8885876 7.88655664 -16.8885876 7.88655664 -17 5 C-14.57989653 -2.26031042 -6.33653028 -0.7377088 0 0 Z " fill="#B4340E" transform="translate(40,0)"/>
<path d="M0 0 C0.99 0.33 1.98 0.66 3 1 C2.67 2.65 2.34 4.3 2 6 C1.01 6.33 0.02 6.66 -1 7 C-0.67 9.31 -0.34 11.62 0 14 C-0.99 13.67 -1.98 13.34 -3 13 C-3 19.6 -3 26.2 -3 33 C-11.25 33 -19.5 33 -28 33 C-28 31.02 -28 29.04 -28 27 C-27.34 27 -26.68 27 -26 27 C-25.67 27.99 -25.34 28.98 -25 30 C-23.84371094 29.98259766 -23.84371094 29.98259766 -22.6640625 29.96484375 C-21.66117188 29.95582031 -20.65828125 29.94679688 -19.625 29.9375 C-18.62726562 29.92589844 -17.62953125 29.91429688 -16.6015625 29.90234375 C-14 30 -14 30 -12 31 C-12 30.01 -12 29.02 -12 28 C-9.69 27.34 -7.38 26.68 -5 26 C-5.33 25.67 -5.66 25.34 -6 25 C-6 17.66666667 -6 10.33333333 -6 3 C-5.34 3.33 -4.68 3.66 -4 4 C-2.68 2.68 -1.36 1.36 0 0 Z " fill="#6D301D" transform="translate(50,30)"/>
<path d="M0 0 C1.11375 0.3403125 1.11375 0.3403125 2.25 0.6875 C2.58 2.3375 2.91 3.9875 3.25 5.6875 C4.24 6.0175 5.23 6.3475 6.25 6.6875 C3.5 13.5625 3.5 13.5625 1.25 14.6875 C-1.0829866 14.72772391 -3.41706666 14.73070247 -5.75 14.6875 C-6.9720897 12.2433206 -6.98641068 10.47720128 -7.0625 7.75 C-7.09988281 6.87472656 -7.13726563 5.99945312 -7.17578125 5.09765625 C-6.75 2.6875 -6.75 2.6875 -4.90234375 0.8515625 C-2.75 -0.3125 -2.75 -0.3125 0 0 Z " fill="#F0A27C" transform="translate(12.75,5.3125)"/>
<path d="M0 0 C2 2 2 2 2 5 C5.3 4.67 8.6 4.34 12 4 C12 6.64 12 9.28 12 12 C10.68 12 9.36 12 8 12 C7.896875 12.639375 7.79375 13.27875 7.6875 13.9375 C7.460625 14.618125 7.23375 15.29875 7 16 C6.01 16.33 5.02 16.66 4 17 C3.67 15.35 3.34 13.7 3 12 C1.68 12 0.36 12 -1 12 C-1.02687279 10.18757948 -1.04633715 8.37504767 -1.0625 6.5625 C-1.07410156 5.55316406 -1.08570312 4.54382813 -1.09765625 3.50390625 C-1 1 -1 1 0 0 Z " fill="#8F5036" transform="translate(29,27)"/>
<path d="M0 0 C0.33 0.99 0.66 1.98 1 3 C1.99 3.33 2.98 3.66 4 4 C3.67 4.99 3.34 5.98 3 7 C3.66 7.33 4.32 7.66 5 8 C4.34 9.32 3.68 10.64 3 12 C1.35 12 -0.3 12 -2 12 C-1.67 10.68 -1.34 9.36 -1 8 C-2.98 8.33 -4.96 8.66 -7 9 C-7 7.02 -7 5.04 -7 3 C-5.35 3 -3.7 3 -2 3 C-2 2.34 -2 1.68 -2 1 C-1.34 0.67 -0.68 0.34 0 0 Z " fill="#E1BDA8" transform="translate(34,10)"/>
<path d="M0 0 C1.32 0.66 2.64 1.32 4 2 C3.67 7.61 3.34 13.22 3 19 C2.34 19.33 1.68 19.66 1 20 C0.67 15.38 0.34 10.76 0 6 C-1.670625 6.2784375 -1.670625 6.2784375 -3.375 6.5625 C-7 7 -7 7 -9 6 C-8.67 5.01 -8.34 4.02 -8 3 C-5.36 3 -2.72 3 0 3 C0 2.01 0 1.02 0 0 Z " fill="#272727" transform="translate(40,26)"/>
<path d="M0 0 C3.23810903 1.24320257 3.85821628 2.06269662 6 5 C6.61701816 7.96399377 6.39945348 9.90423556 6 13 C5.01 14.485 5.01 14.485 4 16 C3.01 16 2.02 16 1 16 C1 14.35 1 12.7 1 11 C2.32 11.33 3.64 11.66 5 12 C5 10.02 5 8.04 5 6 C4.34 6 3.68 6 3 6 C2.34 5.34 1.68 4.68 1 4 C-2.08532426 2.08497115 -4.38542186 1.7069261 -8 2 C-8.33 2.33 -8.66 2.66 -9 3 C-10.66617115 3.04063832 -12.33388095 3.042721 -14 3 C-14 3.66 -14 4.32 -14 5 C-14.66 5 -15.32 5 -16 5 C-16 4.01 -16 3.02 -16 2 C-11.10096681 -1.26602213 -5.71903018 -0.66581846 0 0 Z " fill="#831406" transform="translate(40,0)"/>
<path d="M0 0 C2.26374611 2.26374611 2.48351426 3.31012369 3.125 6.375 C3.29257813 7.14585938 3.46015625 7.91671875 3.6328125 8.7109375 C4 11 4 11 4 15 C7.3 15.66 10.6 16.32 14 17 C10 19 10 19 7.625 19 C3.75894354 17.52721659 1.1344656 15.58848076 -1 12 C-1.66165768 7.92393898 -1.87631762 3.75263523 0 0 Z " fill="#612515" transform="translate(4,25)"/>
<path d="M0 0 C0.66 0 1.32 0 2 0 C4.36993046 7.55415333 5.54435619 16.36693142 3 24 C4.98 24.66 6.96 25.32 9 26 C8.34 26.66 7.68 27.32 7 28 C4.5 27.0625 4.5 27.0625 2 25 C1.66765776 22.65173968 1.74860245 20.51905747 1.921875 18.15625 C2.13280228 15.81445609 2.13280228 15.81445609 1 13 C-0.65 13 -2.3 13 -4 13 C-2.68 12.34 -1.36 11.68 0 11 C-0.020625 10.030625 -0.04125 9.06125 -0.0625 8.0625 C0 5 0 5 1 4 C0.59070014 1.94603274 0.59070014 1.94603274 0 0 Z " fill="#70331E" transform="translate(21,28)"/>
<path d="M0 0 C0.66 0.33 1.32 0.66 2 1 C2.44921875 3.87109375 2.44921875 3.87109375 2.6875 7.4375 C2.81705078 9.19900391 2.81705078 9.19900391 2.94921875 10.99609375 C3 14 3 14 2 16 C-0.375 15.8125 -0.375 15.8125 -3 15 C-5.14771089 11.42048185 -5.36557397 8.11270711 -5 4 C-4.34 3.34 -3.68 2.68 -3 2 C-2.87625 2.556875 -2.7525 3.11375 -2.625 3.6875 C-1.91410292 6.49575033 -1.91410292 6.49575033 0 11 C0 7.37 0 3.74 0 0 Z " fill="#8C4C32" transform="translate(13,21)"/>
<path d="M0 0 C0 5 0 10 0 15 C-0.66 14.67 -1.32 14.34 -2 14 C-2.625 11.9375 -2.625 11.9375 -3 10 C-3.99 10.495 -3.99 10.495 -5 11 C-5 9.35 -5 7.7 -5 6 C-5.66 6 -6.32 6 -7 6 C-7.5625 4.0625 -7.5625 4.0625 -8 2 C-6.03177114 0.03177114 -2.65191291 0.33751619 0 0 Z " fill="#6E311E" transform="translate(14,19)"/>
<path d="M0 0 C0.99 0.33 1.98 0.66 3 1 C0.25 7.875 0.25 7.875 -2 9 C-4.3329866 9.04022391 -6.66706666 9.04320247 -9 9 C-9 7.35 -9 5.7 -9 4 C-7.8553125 4.2784375 -7.8553125 4.2784375 -6.6875 4.5625 C-3.91032625 5.22819173 -3.91032625 5.22819173 -1 4 C-0.26676204 1.98491642 -0.26676204 1.98491642 0 0 Z " fill="#F4AD87" transform="translate(16,11)"/>
<path d="M0 0 C-0.33 1.32 -0.66 2.64 -1 4 C-1.33 3.67 -1.66 3.34 -2 3 C-2.33 8.94 -2.66 14.88 -3 21 C-3.66 20.67 -4.32 20.34 -5 20 C-5 14.39 -5 8.78 -5 3 C-5.99 2.67 -6.98 2.34 -8 2 C-5.09399739 0.74335022 -3.20395416 0 0 0 Z " fill="#2D2624" transform="translate(31,25)"/>
<path d="M0 0 C0.99 0.33 1.98 0.66 3 1 C2.67 2.65 2.34 4.3 2 6 C1.01 6.33 0.02 6.66 -1 7 C-0.67 9.31 -0.34 11.62 0 14 C-3 13 -3 13 -4.25 10.625 C-5.2375247 7.16866354 -4.11812052 5.35436156 -3 2 C-2.01 1.34 -1.02 0.68 0 0 Z " fill="#571B0B" transform="translate(50,30)"/>
<path d="M0 0 C1.80411967 2.75924185 2.0127245 3.88972103 1.625 7.25 C1.41875 8.1575 1.2125 9.065 1 10 C-0.98 10 -2.96 10 -5 10 C-5 9.34 -5 8.68 -5 8 C-4.34 8 -3.68 8 -3 8 C-3.061875 7.05125 -3.12375 6.1025 -3.1875 5.125 C-3.125625 4.09375 -3.06375 3.0625 -3 2 C-2.01 1.34 -1.02 0.68 0 0 Z " fill="#8A4A30" transform="translate(55,49)"/>
<path d="M0 0 C0.99 0 1.98 0 3 0 C5.1519437 3.22791555 5.20086443 4.28400809 5 8 C5.66 8.33 6.32 8.66 7 9 C5.02 9 3.04 9 1 9 C-0.61949011 6.42786866 -1.04408751 5.32330841 -0.625 2.25 C-0.41875 1.5075 -0.2125 0.765 0 0 Z " fill="#AF8978" transform="translate(36,8)"/>
<path d="M0 0 C0.33 0 0.66 0 1 0 C1 1.98 1 3.96 1 6 C-1.70879335 7.35439668 -4.00933268 7.06501451 -7 7 C-7.33 5.35 -7.66 3.7 -8 2 C-6.865625 1.855625 -5.73125 1.71125 -4.5625 1.5625 C-1.19222799 1.38828522 -1.19222799 1.38828522 0 0 Z " fill="#CF9672" transform="translate(39,23)"/>
<path d="M0 0 C2.2477975 2.05233685 3.0022242 3.00667261 4 6 C5.65 6.33 7.3 6.66 9 7 C9 7.33 9 7.66 9 8 C7.35 8 5.7 8 4 8 C3.67 9.32 3.34 10.64 3 12 C2.34 10.35 1.68 8.7 1 7 C0.34 7 -0.32 7 -1 7 C-0.7525 6.1028125 -0.7525 6.1028125 -0.5 5.1875 C0.1114124 2.88655664 0.1114124 2.88655664 0 0 Z " fill="#7F1505" transform="translate(23,5)"/>
<path d="M0 0 C2.64 0 5.28 0 8 0 C8 1.32 8 2.64 8 4 C5.03 4 2.06 4 -1 4 C-0.67 2.68 -0.34 1.36 0 0 Z " fill="#F9BA94" transform="translate(49,60)"/>
<path d="M0 0 C2.4294516 3.6441774 2.16179575 5.71241272 2 10 C0.35 10 -1.3 10 -3 10 C-3 9.34 -3 8.68 -3 8 C-3.66 7.67 -4.32 7.34 -5 7 C-4.01 6.67 -3.02 6.34 -2 6 C-2 4.68 -2 3.36 -2 2 C-1.34 1.34 -0.68 0.68 0 0 Z " fill="#8C4C32" transform="translate(21,29)"/>
<path d="M0 0 C6.93 0.495 6.93 0.495 14 1 C14 1.99 14 2.98 14 4 C9.38 4 4.76 4 0 4 C0 2.68 0 1.36 0 0 Z " fill="#83442B" transform="translate(24,57)"/>
<path d="M0 0 C2.0625 0.4375 2.0625 0.4375 4 1 C4 3.64 4 6.28 4 9 C2.68 8.67 1.36 8.34 0 8 C-0.38063221 5.6739143 -0.71269945 3.33944736 -1 1 C-0.67 0.67 -0.34 0.34 0 0 Z " fill="#555352" transform="translate(37,38)"/>
<path d="M0 0 C2.31 0.33 4.62 0.66 7 1 C6.67 1.99 6.34 2.98 6 4 C5.34 4 4.68 4 4 4 C3.67 5.32 3.34 6.64 3 8 C1.5 6.8125 1.5 6.8125 0 5 C-0.1875 2.3125 -0.1875 2.3125 0 0 Z " fill="#81432B" transform="translate(43,28)"/>
<path d="M0 0 C0.99 0.495 0.99 0.495 2 1 C2 2.32 2 3.64 2 5 C5.3 5.66 8.6 6.32 12 7 C8 9 8 9 5.4375 8.875 C2.43355008 7.796659 1.51249193 6.78616934 0 4 C0 2.68 0 1.36 0 0 Z " fill="#581C0E" transform="translate(6,35)"/>
<path d="M0 0 C2.75101957 2.75101957 2.68248934 5.02938969 3.046875 8.80078125 C3 11 3 11 1.5625 13.5625 C1.046875 14.036875 0.53125 14.51125 0 15 C-0.5625 13.0625 -0.5625 13.0625 -1 11 C-0.67 10.67 -0.34 10.34 0 10 C0.07205511 8.31391034 0.08386068 6.62499341 0.0625 4.9375 C0.05347656 4.01839844 0.04445312 3.09929688 0.03515625 2.15234375 C0.02355469 1.44207031 0.01195312 0.73179688 0 0 Z " fill="#4A1107" transform="translate(57,40)"/>
<path d="M0 0 C2.475 0.495 2.475 0.495 5 1 C5 1.66 5 2.32 5 3 C4.01 3.495 4.01 3.495 3 4 C2.34227572 7.02934491 2.34227572 7.02934491 2 10 C1.34 10 0.68 10 0 10 C0 6.7 0 3.4 0 0 Z " fill="#713420" transform="translate(50,47)"/>
<path d="M0 0 C3.3 0.33 6.6 0.66 10 1 C9.67 1.66 9.34 2.32 9 3 C2.57142857 4.28571429 2.57142857 4.28571429 0 3 C0 2.01 0 1.02 0 0 Z " fill="#692F1B" transform="translate(31,29)"/>
<path d="M0 0 C3 3.625 3 3.625 3 7 C1.35 7 -0.3 7 -2 7 C-1.42415568 4.61435923 -0.77772405 2.33317216 0 0 Z " fill="#2F6170" transform="translate(38,43)"/>
<path d="M0 0 C3 3.625 3 3.625 3 7 C1.35 7 -0.3 7 -2 7 C-1.42415568 4.61435923 -0.77772405 2.33317216 0 0 Z " fill="#2F6170" transform="translate(30,43)"/>
<path d="M0 0 C0.66 0 1.32 0 2 0 C1.67 1.65 1.34 3.3 1 5 C-2.01031744 5.93423645 -2.86650268 6.04449911 -6 5 C-5.38125 4.731875 -4.7625 4.46375 -4.125 4.1875 C-1.7004767 3.04443152 -1.7004767 3.04443152 0 0 Z " fill="#C65531" transform="translate(32,6)"/>
<path d="M0 0 C0.99 0.33 1.98 0.66 3 1 C2.67 2.65 2.34 4.3 2 6 C0.68 6 -0.64 6 -2 6 C-2.33 4.68 -2.66 3.36 -3 2 C-2.01 1.34 -1.02 0.68 0 0 Z " fill="#662918" transform="translate(50,30)"/>
<path d="M0 0 C0.99 0.33 1.98 0.66 3 1 C3.33 3.64 3.66 6.28 4 9 C3.01 9.495 3.01 9.495 2 10 C1.855625 8.906875 1.71125 7.81375 1.5625 6.6875 C1.11711896 3.06877013 1.11711896 3.06877013 0 0 Z " fill="#743723" transform="translate(54,41)"/>
<path d="M0 0 C0.99 0.33 1.98 0.66 3 1 C3.6875 3.0625 3.6875 3.0625 4 5 C2.02 5 0.04 5 -2 5 C-1.34 4.01 -0.68 3.02 0 2 C0 1.34 0 0.68 0 0 Z " fill="#5F2314" transform="translate(43,58)"/>
<path d="M0 0 C1.65 0.33 3.3 0.66 5 1 C3.875 2.5 3.875 2.5 2 4 C-1.1875 4.1875 -1.1875 4.1875 -4 4 C-2.68 3.34 -1.36 2.68 0 2 C0 1.34 0 0.68 0 0 Z " fill="#783A25" transform="translate(39,59)"/>
<path d="M0 0 C1.32 0.66 2.64 1.32 4 2 C3.67 3.32 3.34 4.64 3 6 C2.34 6 1.68 6 1 6 C1 5.34 1 4.68 1 4 C0.01 3.67 -0.98 3.34 -2 3 C-1.34 3 -0.68 3 0 3 C0 2.01 0 1.02 0 0 Z " fill="#372422" transform="translate(40,26)"/>
<path d="M0 0 C0.66 0 1.32 0 2 0 C2.33 0.99 2.66 1.98 3 3 C2.67 3.66 2.34 4.32 2 5 C-0.64 4.67 -3.28 4.34 -6 4 C-6 3.67 -6 3.34 -6 3 C-5.195625 2.87625 -4.39125 2.7525 -3.5625 2.625 C-2.716875 2.41875 -1.87125 2.2125 -1 2 C-0.67 1.34 -0.34 0.68 0 0 Z " fill="#7C3D27" transform="translate(16,37)"/>
</svg>
