<?xml version="1.0" encoding="UTF-8"?>
<svg version="1.1" xmlns="http://www.w3.org/2000/svg" width="64" height="64">
<path d="M0 0 C3.71865449 1.92573179 4.99405304 2.95351092 6.5 6.8125 C6.5 8.1325 6.5 9.4525 6.5 10.8125 C5.84 10.8125 5.18 10.8125 4.5 10.8125 C4.17 11.8025 3.84 12.7925 3.5 13.8125 C4.12648437 14.15023438 4.75296875 14.48796875 5.3984375 14.8359375 C6.21570312 15.28195313 7.03296875 15.72796875 7.875 16.1875 C8.68710937 16.62835937 9.49921875 17.06921875 10.3359375 17.5234375 C12.5 18.8125 12.5 18.8125 14.5 20.8125 C14.625 23.75 14.625 23.75 14.5 26.8125 C14.5 27.8025 14.5 28.7925 14.5 29.8125 C15.263125 30.534375 16.02625 31.25625 16.8125 32 C21.05297218 36.43770345 22.65006576 41.0693036 22.75 47.1875 C22.5 50.8125 22.5 50.8125 21.5 52.8125 C15.13212067 54.66979814 11.21268965 52.8142799 5.5 49.8125 C4.51 49.3175 4.51 49.3175 3.5 48.8125 C3.5 53.4325 3.5 58.0525 3.5 62.8125 C-8.05 62.8125 -19.6 62.8125 -31.5 62.8125 C-32.49 57.2025 -33.48 51.5925 -34.5 45.8125 C-34.83 45.1525 -35.16 44.4925 -35.5 43.8125 C-36.07268722 36.82571586 -36.07268722 36.82571586 -33.875 32.9375 C-31.18546103 30.5310704 -28.9071199 29.87249286 -25.5 28.8125 C-25.17 27.8225 -24.84 26.8325 -24.5 25.8125 C-22.4375 25.125 -22.4375 25.125 -20.5 24.8125 C-20.95890625 24.40773438 -21.4178125 24.00296875 -21.890625 23.5859375 C-24.65962321 20.53466277 -25.59983165 16.77603196 -26.5 12.8125 C-26.26062599 9.14209853 -25.57498625 7.92497938 -23.5 4.8125 C-22.84 4.8125 -22.18 4.8125 -21.5 4.8125 C-21.5 4.1525 -21.5 3.4925 -21.5 2.8125 C-15.39382199 -2.79858249 -7.63604946 -2.45142547 0 0 Z M7.5 35.8125 C8.5 37.8125 8.5 37.8125 8.5 37.8125 Z M8.5 37.8125 C9.5 40.8125 9.5 40.8125 9.5 40.8125 Z " fill="#763521" transform="translate(38.5,1.1875)"/>
<path d="M0 0 C3.71865449 1.92573179 4.99405304 2.95351092 6.5 6.8125 C6.5 8.1325 6.5 9.4525 6.5 10.8125 C5.84 10.8125 5.18 10.8125 4.5 10.8125 C4.17 11.8025 3.84 12.7925 3.5 13.8125 C4.43972656 14.31910156 4.43972656 14.31910156 5.3984375 14.8359375 C6.21570312 15.28195313 7.03296875 15.72796875 7.875 16.1875 C8.68710937 16.62835937 9.49921875 17.06921875 10.3359375 17.5234375 C12.5 18.8125 12.5 18.8125 14.5 20.8125 C14.9375 23.6875 14.9375 23.6875 14.5 26.8125 C12.0625 29.0625 12.0625 29.0625 9.5 30.8125 C9.005 31.8025 9.005 31.8025 8.5 32.8125 C6.125 32.5 6.125 32.5 3.5 31.8125 C2.84 30.8225 2.18 29.8325 1.5 28.8125 C-2.08357241 28.56234127 -2.08357241 28.56234127 -5.5 28.8125 C-6.16 30.1325 -6.82 31.4525 -7.5 32.8125 C-15.25 31.9375 -15.25 31.9375 -17.5 30.8125 C-18.125 28.75 -18.125 28.75 -18.5 26.8125 C-18.83 27.4725 -19.16 28.1325 -19.5 28.8125 C-19.768125 28.090625 -20.03625 27.36875 -20.3125 26.625 C-21.41887263 23.80639484 -21.41887263 23.80639484 -23 21.375 C-25.1730679 17.66267567 -26.6548005 14.47660539 -26.25 10.125 C-25.5 7.8125 -25.5 7.8125 -23.5 4.8125 C-22.84 4.8125 -22.18 4.8125 -21.5 4.8125 C-21.5 4.1525 -21.5 3.4925 -21.5 2.8125 C-15.39382199 -2.79858249 -7.63604946 -2.45142547 0 0 Z " fill="#3D4E5F" transform="translate(38.5,1.1875)"/>
<path d="M0 0 C0.42317708 1.953125 0.84635417 3.90625 1.26953125 5.859375 C1.89711414 8.09504913 1.89711414 8.09504913 3.54296875 9.92578125 C6.26928167 13.80693986 5.73064424 18.46866506 5 23 C2.6875 26.1875 2.6875 26.1875 0 28 C-0.99 28 -1.98 28 -3 28 C-3.33 27.01 -3.66 26.02 -4 25 C-5.11375 25.66 -6.2275 26.32 -7.375 27 C-12.25057105 29.48147344 -16.63783386 29.39556963 -22 29 C-22 29.66 -22 30.32 -22 31 C-23.98 31 -25.96 31 -28 31 C-28 29.68 -28 28.36 -28 27 C-27.05125 26.71125 -26.1025 26.4225 -25.125 26.125 C-21.94788422 25.23174891 -21.94788422 25.23174891 -20 23 C-20.804375 22.773125 -21.60875 22.54625 -22.4375 22.3125 C-23.7059375 21.6628125 -23.7059375 21.6628125 -25 21 C-25.8125 18.375 -25.8125 18.375 -26 16 C-25.34 16 -24.68 16 -24 16 C-23.67 15.01 -23.34 14.02 -23 13 C-22.01 13.33 -21.02 13.66 -20 14 C-19.7525 13.21625 -19.505 12.4325 -19.25 11.625 C-17.79075497 8.56058543 -16.94985044 8.38274239 -14 7 C-12.73195434 4.9664052 -12.73195434 4.9664052 -12 3 C-11.34 3 -10.68 3 -10 3 C-10 4.98 -10 6.96 -10 9 C-9.5875 8.071875 -9.175 7.14375 -8.75 6.1875 C-6.46139492 2.01896932 -4.8653361 0 0 0 Z " fill="#8F4931" transform="translate(36,32)"/>
<path d="M0 0 C1 1 2 2 3 3 C3.66 3 4.32 3 5 3 C5.66 1.68 6.32 0.36 7 -1 C11.30439925 -0.52173342 13.30868598 1.75662157 16 5 C18.8546468 10.30148691 19.41039898 15.04921482 19 21 C18.67 21.66 18.34 22.32 18 23 C11.64776788 24.85273437 7.70404826 23.01370351 2 20 C2 19.34 2 18.68 2 18 C1.34 18 0.68 18 0 18 C-0.66 18.66 -1.32 19.32 -2 20 C-1.90234375 17.98177083 -1.8046875 15.96354167 -1.70703125 13.9453125 C-1.80371094 13.30335937 -1.90039062 12.66140625 -2 12 C-2.99 11.34 -3.98 10.68 -5 10 C-5.51171875 7.8359375 -5.51171875 7.8359375 -5.6875 5.375 C-5.75324219 4.55773438 -5.81898437 3.74046875 -5.88671875 2.8984375 C-5.92410156 2.27195312 -5.96148437 1.64546875 -6 1 C-7.65 1.66 -9.3 2.32 -11 3 C-10.67 1.68 -10.34 0.36 -10 -1 C-5.92777024 -1.92550676 -3.51962543 -2.42732788 0 0 Z M4 6 C5 8 5 8 5 8 Z M5 8 C6 11 6 11 6 11 Z " fill="#87432C" transform="translate(42,31)"/>
<path d="M0 0 C3.71865449 1.92573179 4.99405304 2.95351092 6.5 6.8125 C6.5 8.1325 6.5 9.4525 6.5 10.8125 C5.84 10.8125 5.18 10.8125 4.5 10.8125 C4.17 11.8025 3.84 12.7925 3.5 13.8125 C-1.78497409 14.95757772 -1.78497409 14.95757772 -4.5 14.8125 C-7 12.375 -7 12.375 -8.5 9.8125 C-9.16 10.4725 -9.82 11.1325 -10.5 11.8125 C-13.125 12.4375 -13.125 12.4375 -15.5 12.8125 C-16.16 14.7925 -16.82 16.7725 -17.5 18.8125 C-18.82 18.1525 -20.14 17.4925 -21.5 16.8125 C-21.5 18.7925 -21.5 20.7725 -21.5 22.8125 C-24.16433008 21.48033496 -24.24447159 20.34098372 -25.1875 17.5625 C-26.32421411 13.94568236 -26.89573038 11.46287175 -25.5 7.8125 C-24.84 6.8225 -24.18 5.8325 -23.5 4.8125 C-22.84 4.8125 -22.18 4.8125 -21.5 4.8125 C-21.5 4.1525 -21.5 3.4925 -21.5 2.8125 C-15.39382199 -2.79858249 -7.63604946 -2.45142547 0 0 Z " fill="#9C1C16" transform="translate(38.5,1.1875)"/>
<path d="M0 0 C3.875 4.75 3.875 4.75 5 7 C3.68 7 2.36 7 1 7 C1 6.01 1 5.02 1 4 C-0.32 4.33 -1.64 4.66 -3 5 C-3.66 7.31 -4.32 9.62 -5 12 C-4.34 12 -3.68 12 -3 12 C-2.67 11.01 -2.34 10.02 -2 9 C-0.68 9.33 0.64 9.66 2 10 C1.34 12.31 0.68 14.62 0 17 C0.66 17.66 1.32 18.32 2 19 C1.625 21.625 1.625 21.625 1 24 C-6.75 23.125 -6.75 23.125 -9 22 C-9.625 19.9375 -9.625 19.9375 -10 18 C-10.33 18.66 -10.66 19.32 -11 20 C-14.62870159 11.738041 -14.62870159 11.738041 -13 7 C-11.68 7 -10.36 7 -9 7 C-8.79375 6.38125 -8.5875 5.7625 -8.375 5.125 C-6.45150753 2.15232982 -4.32680765 1.92018084 -1 1 C-0.67 0.67 -0.34 0.34 0 0 Z " fill="#EFB188" transform="translate(30,10)"/>
<path d="M0 0 C7.03960498 -0.34939216 12.66434104 -0.28096625 19 3 C21.74583491 6.3464863 22 7.5933055 22 12 C21.34 12 20.68 12 20 12 C19.67 12.99 19.34 13.98 19 15 C16.36 15.33 13.72 15.66 11 16 C11.66 14.02 12.32 12.04 13 10 C14.32 10.66 15.64 11.32 17 12 C16.505 11.54625 16.01 11.0925 15.5 10.625 C14 9 14 9 14 7 C13.34 7 12.68 7 12 7 C11.67 7.66 11.34 8.32 11 9 C11 8.34 11 7.68 11 7 C9.68 7.33 8.36 7.66 7 8 C7 7.34 7 6.68 7 6 C5.4221875 6.4640625 5.4221875 6.4640625 3.8125 6.9375 C0.87247604 7.75685094 -2.00161623 8.45483931 -5 9 C-5 8.34 -5 7.68 -5 7 C-4.01 6.34 -3.02 5.68 -2 5 C-0.79549696 2.44816596 -0.79549696 2.44816596 0 0 Z " fill="#A72E18" transform="translate(23,0)"/>
<path d="M0 0 C2.0625 1.8125 2.0625 1.8125 4 5 C4.05763105 8.73030079 3.59266221 12.32162911 3 16 C4.98 16 6.96 16 9 16 C9 15.34 9 14.68 9 14 C9.65226563 13.96261719 10.30453125 13.92523438 10.9765625 13.88671875 C16.42466515 13.47690572 20.11441314 12.55911693 25 10 C27.3125 10.1875 27.3125 10.1875 29 11 C29.33 11.66 29.66 12.32 30 13 C33.49413605 10.13301658 35.28836874 8.15849852 35.8125 3.6875 C35.874375 2.470625 35.93625 1.25375 36 0 C36.495 0.99 36.495 0.99 37 2 C37.66 2.33 38.32 2.66 39 3 C38.34 3 37.68 3 37 3 C37 7.62 37 12.24 37 17 C25.45 17 13.9 17 2 17 C0 5 0 5 0 0 Z " fill="#773422" transform="translate(5,47)"/>
<path d="M0 0 C3.71599191 -0.20086443 4.77208445 -0.1519437 8 2 C7.67 2.99 7.34 3.98 7 5 C10.3 5.66 13.6 6.32 17 7 C16.01 7.495 16.01 7.495 15 8 C14.32060826 9.99571323 13.65438441 11.99594773 13 14 C12.34 14.66 11.68 15.32 11 16 C10.875 10.25 10.875 10.25 12 8 C10.70756532 9.1241176 9.41607925 10.24932592 8.125 11.375 C7.40570313 12.00148438 6.68640625 12.62796875 5.9453125 13.2734375 C4.5923402 14.47426834 3.2791655 15.7208345 2 17 C2 16.34 2 15.68 2 15 C0.02 15.99 -1.96 16.98 -4 18 C-3.45912682 14.21388773 -1.88277668 12.44599233 1 10 C1.66 10 2.32 10 3 10 C3.66 8.68 4.32 7.36 5 6 C3.02 5.34 1.04 4.68 -1 4 C-0.67 2.68 -0.34 1.36 0 0 Z " fill="#5B1E0F" transform="translate(14,27)"/>
<path d="M0 0 C2.91517292 1.07401108 4.77810176 1.77810176 7 4 C7.25 7 7.25 7 7 10 C5 12 5 12 2.6875 12.5 C-1.4147616 11.73678854 -2.71109016 9.33526862 -5 6 C-5 5.01 -5 4.02 -5 3 C-3.68 3 -2.36 3 -1 3 C-0.67 2.01 -0.34 1.02 0 0 Z " fill="#3F454C" transform="translate(46,18)"/>
<path d="M0 0 C1 1 2 2 3 3 C3.66 3 4.32 3 5 3 C5.66 1.68 6.32 0.36 7 -1 C9.86724686 -0.42655063 10.8614515 -0.1385485 13 2 C11.02 2 9.04 2 7 2 C7.66 2 8.32 2 9 2 C8.85691406 2.90492187 8.85691406 2.90492187 8.7109375 3.828125 C8.54464844 5.02695312 8.54464844 5.02695312 8.375 6.25 C8.25898437 7.03890625 8.14296875 7.8278125 8.0234375 8.640625 C7.99680605 11.32152459 8.63407916 12.72694089 10 15 C9.34 15 8.68 15 8 15 C5.59417945 12.3535974 3.49886792 10.027081 1.9375 6.8125 C0.66296729 4.34840343 -0.57658796 3.34634002 -3 2 C-6.11189466 1.75104843 -8.19084526 1.59542263 -11 3 C-10.67 1.68 -10.34 0.36 -10 -1 C-5.92777024 -1.92550676 -3.51962543 -2.42732788 0 0 Z M4 6 C5 8 5 8 5 8 Z M5 8 C6 11 6 11 6 11 Z " fill="#55190A" transform="translate(42,31)"/>
<path d="M0 0 C1.32 0 2.64 0 4 0 C4 0.99 4 1.98 4 3 C4.639375 2.649375 5.27875 2.29875 5.9375 1.9375 C10.1430267 0.65009387 13.71464763 1.3091153 18 2 C18 3.32 18 4.64 18 6 C12.555 5.505 12.555 5.505 7 5 C6.67 5.99 6.34 6.98 6 8 C3.525 7.01 3.525 7.01 1 6 C0.67 6.66 0.34 7.32 0 8 C-0.66 8 -1.32 8 -2 8 C-1.125 1.125 -1.125 1.125 0 0 Z " fill="#725443" transform="translate(27,14)"/>
<path d="M0 0 C1.32 0 2.64 0 4 0 C4 0.99 4 1.98 4 3 C8.95 3.33 13.9 3.66 19 4 C20 9 20 9 19.4375 11.25 C18 13 18 13 14.875 13.75 C13.451875 13.87375 13.451875 13.87375 12 14 C12.66 12.02 13.32 10.04 14 8 C15.32 8.66 16.64 9.32 18 10 C17.505 9.54625 17.01 9.0925 16.5 8.625 C15 7 15 7 15 5 C14.34 5 13.68 5 13 5 C12.67 5.66 12.34 6.32 12 7 C12 6.34 12 5.68 12 5 C10.68 5.33 9.36 5.66 8 6 C8 5.34 8 4.68 8 4 C6.4221875 4.4640625 6.4221875 4.4640625 4.8125 4.9375 C1.87247604 5.75685094 -1.00161623 6.45483931 -4 7 C-4 6.34 -4 5.68 -4 5 C-3.01 4.34 -2.02 3.68 -1 3 C-0.67 2.01 -0.34 1.02 0 0 Z " fill="#B82D22" transform="translate(22,2)"/>
<path d="M0 0 C3.875 4.75 3.875 4.75 5 7 C3.68 7 2.36 7 1 7 C1 6.01 1 5.02 1 4 C-0.9681998 4.20089311 -0.9681998 4.20089311 -3 5 C-4.02513439 6.75102797 -4.02513439 6.75102797 -4.5625 8.875 C-5.50724847 12.05545759 -6.49577296 13.79406039 -9 16 C-10.5625 14.1875 -10.5625 14.1875 -12 12 C-11.67 11.01 -11.34 10.02 -11 9 C-11.99 8.67 -12.98 8.34 -14 8 C-12.824375 7.87625 -12.824375 7.87625 -11.625 7.75 C-10.75875 7.5025 -9.8925 7.255 -9 7 C-8.690625 6.360625 -8.38125 5.72125 -8.0625 5.0625 C-7 3 -7 3 -3.9375 1.8125 C-2.4834375 1.4103125 -2.4834375 1.4103125 -1 1 C-0.67 0.67 -0.34 0.34 0 0 Z " fill="#F5B790" transform="translate(30,10)"/>
<path d="M0 0 C2.0625 1.8125 2.0625 1.8125 4 5 C3.67 8.63 3.34 12.26 3 16 C13.89 16 24.78 16 36 16 C36 10.72 36 5.44 36 0 C36.495 0.99 36.495 0.99 37 2 C37.66 2.33 38.32 2.66 39 3 C38.34 3 37.68 3 37 3 C37 7.62 37 12.24 37 17 C25.45 17 13.9 17 2 17 C0 5 0 5 0 0 Z " fill="#450C04" transform="translate(5,47)"/>
<path d="M0 0 C2.3828125 0.0234375 2.3828125 0.0234375 5.125 0.375 C6.03507812 0.48585938 6.94515625 0.59671875 7.8828125 0.7109375 C8.93082031 0.85402344 8.93082031 0.85402344 10 1 C10 1.66 10 2.32 10 3 C10.99 3.33 11.98 3.66 13 4 C13 4.66 13 5.32 13 6 C12.01 5.67 11.02 5.34 10 5 C8.68 6.32 7.36 7.64 6 9 C5.01 7.68 4.02 6.36 3 5 C2.34 5.66 1.68 6.32 1 7 C-0.32 7 -1.64 7 -3 7 C-2.25 2.25 -2.25 2.25 0 0 Z " fill="#9D1C17" transform="translate(27,6)"/>
<path d="M0 0 C5.625 -0.25 5.625 -0.25 9 2 C8.67 3.65 8.34 5.3 8 7 C7.01 6.67 6.02 6.34 5 6 C5 6.66 5 7.32 5 8 C4.01 8 3.02 8 2 8 C2 7.34 2 6.68 2 6 C1.01 6.33 0.02 6.66 -1 7 C-2.21869929 9.50447516 -2.21869929 9.50447516 -3 12 C-3.33 12 -3.66 12 -4 12 C-4 9.36 -4 6.72 -4 4 C-2.68 3.34 -1.36 2.68 0 2 C0 1.34 0 0.68 0 0 Z " fill="#793822" transform="translate(10,31)"/>
<path d="M0 0 C0.99 0.33 1.98 0.66 3 1 C0 4 -3 7 -6 10 C-6 9.34 -6 8.68 -6 8 C-7.98 8.99 -9.96 9.98 -12 11 C-11.45650964 7.19556745 -9.96915847 5.3918221 -7 3 C-4.375 2.375 -4.375 2.375 -2 2 C-1.34 1.34 -0.68 0.68 0 0 Z " fill="#6C2C1A" transform="translate(22,34)"/>
<path d="M0 0 C0.33 1.32 0.66 2.64 1 4 C1.33 3.34 1.66 2.68 2 2 C2.33 3.32 2.66 4.64 3 6 C1.68 6.99 0.36 7.98 -1 9 C-3 8 -3 8 -4 5 C-5.32 5.33 -6.64 5.66 -8 6 C-7.67 5.01 -7.34 4.02 -7 3 C-6.34 3 -5.68 3 -5 3 C-4.67 2.34 -4.34 1.68 -4 1 C-2 0 -2 0 0 0 Z " fill="#86422B" transform="translate(36,52)"/>
<path d="M0 0 C4.22754195 2.11377098 4.174425 2.227145 6 6 C6.99 6.33 7.98 6.66 9 7 C8.01 8.485 8.01 8.485 7 10 C5.35 9.67 3.7 9.34 2 9 C1.34 6.03 0.68 3.06 0 0 Z " fill="#BF6B4B" transform="translate(40,24)"/>
<path d="M0 0 C0.99 0 1.98 0 3 0 C3.185625 1.2065625 3.185625 1.2065625 3.375 2.4375 C3.58125 3.283125 3.7875 4.12875 4 5 C4.66 5.33 5.32 5.66 6 6 C6.66 5.34 7.32 4.68 8 4 C7.67 6.97 7.34 9.94 7 13 C6.34 13 5.68 13 5 13 C4.67 11.68 4.34 10.36 4 9 C3.67 9.66 3.34 10.32 3 11 C2.49384702 9.73160474 1.99530901 8.46016898 1.5 7.1875 C1.2215625 6.47980469 0.943125 5.77210937 0.65625 5.04296875 C0 3 0 3 0 0 Z " fill="#B36D4F" transform="translate(16,19)"/>
<path d="M0 0 C0.99 0 1.98 0 3 0 C3.74714785 2.68973228 4.1205535 4.51778598 3.4375 7.25 C2 9 2 9 -1.125 9.75 C-2.548125 9.87375 -2.548125 9.87375 -4 10 C-3.34 8.02 -2.68 6.04 -2 4 C-0.68 4.66 0.64 5.32 2 6 C1.01 5.01 0.02 4.02 -1 3 C-0.67 2.01 -0.34 1.02 0 0 Z " fill="#B74639" transform="translate(38,6)"/>
<path d="M0 0 C3.71599191 -0.20086443 4.77208445 -0.1519437 8 2 C7.67 3.32 7.34 4.64 7 6 C3.62537285 5.45276317 1.91765 4.9451 -1 3 C-0.67 2.01 -0.34 1.02 0 0 Z " fill="#2C1E1B" transform="translate(14,27)"/>
<path d="M0 0 C2.3125 0.1875 2.3125 0.1875 4 1 C3.67 2.65 3.34 4.3 3 6 C0.36 5.67 -2.28 5.34 -5 5 C-2.75 2.4375 -2.75 2.4375 0 0 Z " fill="#C5795A" transform="translate(28,28)"/>
<path d="M0 0 C3.875 4.75 3.875 4.75 5 7 C3.68 7 2.36 7 1 7 C1 6.01 1 5.02 1 4 C-3.455 5.485 -3.455 5.485 -8 7 C-7.67 5.68 -7.34 4.36 -7 3 C-4 1.8125 -4 1.8125 -1 1 C-0.67 0.67 -0.34 0.34 0 0 Z " fill="#EEAF87" transform="translate(30,10)"/>
<path d="M0 0 C0 2.64 0 5.28 0 8 C-1.98 8 -3.96 8 -6 8 C-5.57004265 4.99029853 -3.66008917 0 0 0 Z " fill="#632415" transform="translate(41,55)"/>
<path d="M0 0 C0.75 2.125 0.75 2.125 1 4 C0.46375 3.67 -0.0725 3.34 -0.625 3 C-3.57217367 1.75908477 -5.82934784 1.79321834 -9 2 C-9.99 2.495 -9.99 2.495 -11 3 C-10.67 1.68 -10.34 0.36 -10 -1 C-3.25628141 -2.53266332 -3.25628141 -2.53266332 0 0 Z " fill="#381811" transform="translate(42,31)"/>
<path d="M0 0 C1.32 0.66 2.64 1.32 4 2 C4 3.65 4 5.3 4 7 C3.34 7 2.68 7 2 7 C1.67 7.99 1.34 8.98 1 10 C0.34 10 -0.32 10 -1 10 C-0.67 6.7 -0.34 3.4 0 0 Z " fill="#87180B" transform="translate(41,5)"/>
<path d="M0 0 C1.32 0.66 2.64 1.32 4 2 C3.071875 3.1446875 3.071875 3.1446875 2.125 4.3125 C-0.05597052 6.99625809 -0.05597052 6.99625809 -2 10 C-2.1953125 3.9453125 -2.1953125 3.9453125 -2 2 C-1.34 1.34 -0.68 0.68 0 0 Z " fill="#914C33" transform="translate(8,33)"/>
<path d="M0 0 C0.66 0 1.32 0 2 0 C2 0.66 2 1.32 2 2 C2.99 2.33 3.98 2.66 5 3 C5 3.66 5 4.32 5 5 C4.01 4.67 3.02 4.34 2 4 C0.68 5.32 -0.64 6.64 -2 8 C-2.33 6.68 -2.66 5.36 -3 4 C-2.34 3.67 -1.68 3.34 -1 3 C-0.67 2.01 -0.34 1.02 0 0 Z " fill="#87180B" transform="translate(35,7)"/>
<path d="M0 0 C2.31 0 4.62 0 7 0 C5.8125 2 5.8125 2 4 4 C1.3125 4.25 1.3125 4.25 -1 4 C-0.67 2.68 -0.34 1.36 0 0 Z " fill="#652715" transform="translate(9,55)"/>
<path d="M0 0 C1.32 0 2.64 0 4 0 C4 0.99 4 1.98 4 3 C2.68 3 1.36 3 0 3 C0 4.65 0 6.3 0 8 C-0.66 8 -1.32 8 -2 8 C-1.125 1.125 -1.125 1.125 0 0 Z " fill="#63392F" transform="translate(27,14)"/>
<path d="M0 0 C4.29 0 8.58 0 13 0 C13 0.66 13 1.32 13 2 C7.96488101 3.0070238 4.76052962 2.97387813 0 1 C0 0.67 0 0.34 0 0 Z " fill="#55190A" transform="translate(47,52)"/>
<path d="M0 0 C0.99 0 1.98 0 3 0 C2.01 3.3 1.02 6.6 0 10 C-0.66 9.34 -1.32 8.68 -2 8 C-1.7578125 6.0546875 -1.7578125 6.0546875 -1.125 3.875 C-0.92132812 3.15054687 -0.71765625 2.42609375 -0.5078125 1.6796875 C-0.34023438 1.12539063 -0.17265625 0.57109375 0 0 Z " fill="#E5A37A" transform="translate(24,22)"/>
<path d="M0 0 C1.39195915 4.17587745 -0.17676781 6.13474776 -2 10 C-4 7 -4 7 -3.625 3.8125 C-3.41875 2.884375 -3.2125 1.95625 -3 1 C-2.01 0.67 -1.02 0.34 0 0 Z " fill="#A1241E" transform="translate(23,10)"/>
<path d="M0 0 C2.0625 2.25 2.0625 2.25 4 5 C3.75 7.3125 3.75 7.3125 3 9 C2.34 9 1.68 9 1 9 C0.67 6.03 0.34 3.06 0 0 Z " fill="#511508" transform="translate(5,47)"/>
<path d="M0 0 C0.66 0.66 1.32 1.32 2 2 C-0.97 4.475 -0.97 4.475 -4 7 C-4.33 6.01 -4.66 5.02 -5 4 C-3.35 2.68 -1.7 1.36 0 0 Z " fill="#521608" transform="translate(15,38)"/>
<path d="M0 0 C1.65 0 3.3 0 5 0 C5.33 0.99 5.66 1.98 6 3 C5.01 3.99 4.02 4.98 3 6 C0 2.25 0 2.25 0 0 Z " fill="#931A12" transform="translate(29,7)"/>
<path d="M0 0 C2 1.375 2 1.375 4 3 C4 3.66 4 4.32 4 5 C4.99 5.33 5.98 5.66 7 6 C5.68 6.33 4.36 6.66 3 7 C0 3.375 0 3.375 0 0 Z " fill="#EFAE87" transform="translate(42,25)"/>
<path d="M0 0 C0.9075 0.226875 1.815 0.45375 2.75 0.6875 C2.110625 0.790625 1.47125 0.89375 0.8125 1 C-0.2084375 1.3403125 -0.2084375 1.3403125 -1.25 1.6875 C-1.58 2.6775 -1.91 3.6675 -2.25 4.6875 C-4.725 3.6975 -4.725 3.6975 -7.25 2.6875 C-4.61280971 0.1517401 -3.74095095 -0.35970682 0 0 Z " fill="#6E5445" transform="translate(42.25,19.3125)"/>
<path d="M0 0 C2 3 2 3 2 5 C-0.31 5 -2.62 5 -5 5 C-3.35 3.35 -1.7 1.7 0 0 Z " fill="#6E2D1C" transform="translate(33,58)"/>
<path d="M0 0 C1.9375 0.375 1.9375 0.375 4 1 C4.33 1.66 4.66 2.32 5 3 C3.35 3.66 1.7 4.32 0 5 C0 3.35 0 1.7 0 0 Z " fill="#8F4A32" transform="translate(13,31)"/>
<path d="M0 0 C2 3 2 3 1.625 5.1875 C1.41875 5.785625 1.2125 6.38375 1 7 C0.01 6.34 -0.98 5.68 -2 5 C-1.34 3.35 -0.68 1.7 0 0 Z " fill="#705749" transform="translate(31,22)"/>
<path d="M0 0 C0.99 0.33 1.98 0.66 3 1 C2.67 2.32 2.34 3.64 2 5 C1.01 5 0.02 5 -1 5 C-0.67 3.35 -0.34 1.7 0 0 Z " fill="#4883A8" transform="translate(48,23)"/>
<path d="M0 0 C2.31 0.33 4.62 0.66 7 1 C6.67 1.66 6.34 2.32 6 3 C4.35 3 2.7 3 1 3 C0.67 2.01 0.34 1.02 0 0 Z " fill="#E2A47A" transform="translate(39,17)"/>
</svg>
